<?xml version="1.0" encoding="UTF-8"?>
<!-- Generated by Pixelmator Pro 2.4.7 -->
<svg width="2500" height="938" viewBox="0 0 2500 938" xmlns="http://www.w3.org/2000/svg" xmlns:xlink="http://www.w3.org/1999/xlink">
    <g id="Group">
        <path id="Path" fill="#fb8c00" stroke="none" d="M 1614.234985 937.990234 L 1993.185547 0 L 1741.965698 0 L 1482.759277 606.151245 L 1298.408691 0 L 1105.300781 0 L 907.394836 606.151245 L 767.815369 329.937378 L 641.50824 718.327881 L 769.746216 938 L 1016.987183 938 L 1195.837769 394.417175 L 1366.360107 938 Z"/>
        <path id="path1" fill="#616161" stroke="none" d="M 239.630905 615.990967 L 393.974854 615.990967 C 440.735352 615.990967 482.366394 610.773682 518.877625 600.329346 L 558.802124 477.279419 L 670.364197 133.387085 C 661.792908 119.818542 652.049194 107.0271 641.244995 95.159424 C 583.981567 31.723083 500.163696 0 389.820496 0 L 1.751848 0 L 1.751848 937.990234 L 239.630905 937.990234 Z M 443.93399 215.790894 C 466.314728 238.317932 477.500183 268.470947 477.500183 306.249939 C 477.500183 344.311768 467.650757 374.493958 447.981079 396.806396 C 426.40979 421.595825 386.690125 433.99054 328.822144 433.99054 L 239.630905 433.99054 L 239.630905 182.000488 L 329.485229 182.000488 C 383.413483 182.000488 421.563049 193.263916 443.943787 215.790894 Z M 1839.241455 769.993591 L 1911.356934 587.993164 L 2119.541504 587.993164 L 2020.744507 311.915833 L 2144.321045 0 L 2498.248047 937.990234 L 2237.227539 937.990234 L 2176.755859 769.993591 Z"/>
    </g>
</svg>
